<?xml version="1.0" encoding="utf-8"?>
<!-- Generator: Adobe Illustrator 16.0.0, SVG Export Plug-In . SVG Version: 6.00 Build 0)  -->
<!DOCTYPE svg PUBLIC "-//W3C//DTD SVG 1.1//EN" "http://www.w3.org/Graphics/SVG/1.1/DTD/svg11.dtd">
<svg version="1.1" id="Layer_1" xmlns="http://www.w3.org/2000/svg" xmlns:xlink="http://www.w3.org/1999/xlink" x="0px" y="0px"
	 width="100px" height="100px" viewBox="0 0 100 100" style="enable-background:new 0 0 100 100;" xml:space="preserve">
<path d="M90.092,39.499c-1.934-0.966-3.634-1.201-4.822-1.203c-0.054-2.067-0.763-5.604-4.508-8.289
	c-3.027-2.171-4.986-2.276-8.447-1.995c-3.484,0.283-7.469,3.711-8.776,6.009c-0.614-0.09-1.461-0.152-2.384-0.051
	c1.574-2.969,3.617-5.358,5.242-7.252c2.053-2.397,3.41-3.981,2.668-5.591c-0.705-1.536-2.879-1.836-6.395-1.836
	c-16.155,0-28.107,11.448-29.55,27.998c-3.214,1.804-6.055,4.691-7.098,6.754c-0.574-0.1-1.365-0.197-2.263-0.197
	c-1.979,0-3.695,0.461-5.098,1.365c-3.437,2.219-4.061,6.15-4.15,8.091c-3.391,0.968-8.497,3.899-8.919,9.866
	c-0.335,4.734,1.18,7.432,2.509,8.857c1.311,1.406,3.076,2.246,4.728,2.246L58.29,84.27c0,0,0.097,0.006,0.274,0.006
	c0.804,0,3.444-0.133,5.867-1.697l-0.004,0.182l0.655,0.006c12.51,0,22.022-6.687,26.792-18.828
	c0.371-0.938-0.021-1.584-0.207-1.817c-0.848-1.063-2.385-0.835-5.75-0.338c-6.173,0.913-17.039,2.518-23.016-5.261h24.01
	c0.104,0.006,0.215,0.01,0.33,0.01c2.343,0,6.515-1.279,7.515-6.281C95.499,46.548,94.663,41.782,90.092,39.499z M58.564,81.657
	l-45.741-0.003c-0.721,0-1.835-0.371-2.806-1.411c-0.975-1.048-2.083-3.095-1.814-6.89c0.443-6.264,7.556-7.674,7.854-7.73
	l1.164-0.212l-0.095-1.179c-0.002-0.047-0.332-4.7,2.954-6.819c0.974-0.629,2.211-0.948,3.679-0.948
	c1.396,0,2.479,0.303,2.486,0.303l0.836,0.242l0.546-0.679c0.045-0.06,0.468-0.587,0.727-1.099c1.142-2.267,5.971-6.673,9.85-6.989
	c0.954-0.078,1.965-0.149,2.889-0.149c2.277,0,4.033,0.375,6.789,2.349c6.001,4.303,4.917,10.499,4.871,10.754l-0.396,2.062
	l2.029-0.549c0.016-0.004,2.85-0.83,6.899,1.192c6.169,3.084,5.098,10.154,4.819,11.541C64.953,81.21,60.044,81.657,58.564,81.657z
	 M86.302,64.371c0.908-0.135,1.954-0.29,2.714-0.357c-3.1,7.237-9.396,15.312-22.024,16.061c0.739-1.078,1.343-2.415,1.683-4.115
	c0.346-1.714,1.657-10.463-6.218-14.396c-2.994-1.496-5.494-1.672-6.981-1.615c0.027-2.657-0.701-7.783-6.065-11.63
	c-2.888-2.07-5.14-2.84-8.313-2.84c-1.018,0-2.091,0.076-3.102,0.158c-0.702,0.057-1.417,0.218-2.135,0.446
	c1.867-14.365,12.557-24.17,26.812-24.17c2.483,0,3.492,0.205,3.886,0.342c-0.304,0.61-1.313,1.79-2.148,2.764
	c-4.307,5.025-12.319,14.378-5.988,28.972C64.331,67.624,79.172,65.426,86.302,64.371z M92.189,49.735
	c-0.849,4.238-4.695,4.183-5.205,4.167H61.271c-0.155-0.311-0.311-0.627-0.453-0.957c-2.766-6.38-2.508-11.603-1.032-15.85
	c1.676-0.985,3.993-0.365,4.013-0.359l0.838,0.242l0.545-0.681c0.06-0.073,0.363-0.459,0.562-0.853
	c0.79-1.564,4.115-4.606,6.783-4.823c3.061-0.25,4.341-0.184,6.711,1.513c4.111,2.95,3.386,7.189,3.354,7.36l-0.389,2.045
	l2.021-0.53c0.082-0.021,2.021-0.507,4.698,0.832C93.119,43.938,92.383,48.784,92.189,49.735z"/>
</svg>
